# xmcd CD database file
#
# Track frame offsets:
#	150
#	15181
#	27032
#	42672
#	62377
#	74241
#	83680
#	98013
#	111183
#	120574
#	139531
#	151922
#
# Disc length: 2254 seconds
#
# Revision: 0
# Processed by: cddbd v1.5.2PL0 Copyright (c) Steve Scherf et al.
# Submitted via: CDex 1.70beta2
#
DISCID=8f08cc0c
DTITLE=Eliza Lynn - The Weary Wake Up
DYEAR=2007
DGENRE=Blues
TTITLE0=Circle
TTITLE1=Hold My Breath
TTITLE2=Conrad
TTITLE3=How Many Times
TTITLE4=Intolerance Blues
TTITLE5=Bound
TTITLE6=Stared At Me
TTITLE7=Get On Up
TTITLE8=Puddin Pie
TTITLE9=Weary
TTITLE10=Wake Up
TTITLE11=A Valley Ahead
EXTD=YEAR: 2007
EXTT0=
EXTT1=
EXTT2=
EXTT3=
EXTT4=
EXTT5=
EXTT6=
EXTT7=
EXTT8=
EXTT9=
EXTT10=
EXTT11=
PLAYORDER=
